<?xml version="1.0" encoding="UTF-8"?><svg id="Layer_1" xmlns="http://www.w3.org/2000/svg" viewBox="0 0 1920 1080"><defs><style>.cls-1{fill:#a6a4a4;}.cls-2{fill:#ea2227;}.cls-3{fill:#20295c;}</style></defs><g><path class="cls-1" d="m194.61,826.48c8.06,3.82,14.07,9.02,18.04,15.6,3.96,6.58,5.94,14.18,5.94,22.81,0,9.2-2.08,17.37-6.23,24.51-4.15,7.15-10.41,12.73-18.79,16.76-8.37,4.03-18.57,6.05-30.59,6.05h-17.61v46.05h-29.28v-137.5h48.17c12.17,0,22.28,1.91,30.34,5.73Zm-14.15,56.55c4.76-3.32,7.15-9.09,7.15-17.29,0-6.93-2.13-12.13-6.39-15.6-4.26-3.46-10.21-5.2-17.86-5.2h-17.97v43.08h14.72c8.81,0,15.59-1.66,20.35-4.99Z"/><path class="cls-1" d="m400.86,820.75l49.44,135.81v1.7h-32.04l-11.03-32.89h-50.93l-10.82,32.89h-31.62v-1.7l49.44-135.81h37.56Zm-36.5,80.42h34.8l-17.61-52.41-17.19,52.41Z"/><path class="cls-1" d="m679.05,956.56v1.7h-33.67l-34.53-50.08h-11.58v50.08h-29.28v-137.5h46.05c12.17,0,22.31,1.88,30.45,5.62,8.13,3.75,14.18,8.84,18.14,15.28,3.96,6.44,5.94,13.76,5.94,21.96,0,9.62-2.41,17.93-7.21,24.93-4.81,7-11.88,12.2-21.22,15.6l36.92,52.41Zm-79.79-71.09h13.22c8.67,0,15.36-1.63,20.05-4.88,4.7-3.25,7.05-8.63,7.05-16.13,0-6.51-2.1-11.39-6.29-14.64-4.19-3.25-10.04-4.88-17.56-4.88h-16.48v40.53Z"/><path class="cls-1" d="m898.68,820.75v25.68h-43.71v111.83h-29.28v-111.83h-43.93v-25.68h116.92Z"/><path class="cls-1" d="m1140.37,820.75v137.5h-32.68l-43.23-64.08c-3.69-5.66-6.82-10.57-9.37-14.75-2.56-4.17-5.04-8.88-7.45-14.11v92.94h-29.28v-137.5h32.25l47.06,70.45c.57.85,1.84,2.79,3.83,5.84,1.99,3.04,3.8,5.91,5.43,8.59,1.63,2.69,3.02,5.31,4.15,7.85v-92.73h29.28Z"/><path class="cls-1" d="m1301.64,933.64h63.66v24.61h-92.94v-137.5h91.88v24.4h-62.6v30.98h54.11l-3.45,24.19h-50.66v33.32Z"/><path class="cls-1" d="m1600.62,956.56v1.7h-33.67l-34.53-50.08h-11.58v50.08h-29.28v-137.5h46.05c12.17,0,22.31,1.88,30.45,5.62,8.13,3.75,14.18,8.84,18.14,15.28,3.96,6.44,5.94,13.76,5.94,21.96,0,9.62-2.41,17.93-7.21,24.93-4.81,7-11.88,12.2-21.22,15.6l36.92,52.41Zm-79.79-71.09h13.22c8.67,0,15.36-1.63,20.05-4.88,4.7-3.25,7.05-8.63,7.05-16.13,0-6.51-2.1-11.39-6.29-14.64-4.19-3.25-10.04-4.88-17.56-4.88h-16.48v40.53Z"/><path class="cls-1" d="m1709.9,944.67l13.58-21.01c13.16,8.35,26.03,12.52,38.62,12.52,8.06,0,14.39-1.27,18.99-3.82,4.59-2.55,6.9-6.37,6.9-11.46,0-3.11-.74-5.69-2.23-7.75-1.49-2.05-4.1-4.03-7.85-5.94-3.75-1.91-9.37-4.35-16.87-7.32l-4.88-1.91c-9.05-3.53-16.34-6.93-21.86-10.19-5.52-3.25-9.9-7.43-13.16-12.52-3.26-5.09-4.88-11.53-4.88-19.31,0-8.63,2.47-15.81,7.43-21.54,4.95-5.73,11.32-9.94,19.1-12.63,7.78-2.68,16.05-4.03,24.83-4.03,7.92,0,16.09,1.31,24.51,3.93,8.41,2.62,16.44,6.47,24.08,11.56l-13.71,20.8c-6.75-4.1-12.72-7.07-17.93-8.91-5.2-1.84-10.83-2.76-16.87-2.76-6.75,0-11.85,1.13-15.29,3.4-3.45,2.26-5.17,5.31-5.17,9.12,0,2.41.7,4.56,2.11,6.47,1.41,1.91,3.93,3.82,7.59,5.73,3.66,1.91,8.93,4.14,15.82,6.68l4.64,1.7c9,3.4,16.28,6.58,21.83,9.55,5.55,2.97,10.23,7.21,14.03,12.73,3.8,5.52,5.69,12.66,5.69,21.43s-2.41,16.94-7.21,23.24c-4.81,6.3-11.35,11-19.63,14.11-8.28,3.11-17.65,4.67-28.12,4.67-21.22,0-39.26-5.52-54.11-16.55Z"/></g><g><path class="cls-3" d="m464.77,40l221.65,594.47v6.49h-111.29l-56.57-159.51h-241.13l-55.64,159.51h-108.51v-6.49L334,40h130.76Zm-157.66,356.12h180.84l-90.89-257.82-89.96,257.82Z"/><path class="cls-3" d="m1585.07,40l221.65,594.47v6.49h-111.29l-56.57-159.51h-241.13l-55.64,159.51h-108.51v-6.49L1454.31,40h130.76Zm-157.66,356.12h180.84l-90.89-257.82-89.96,257.82Z"/><path class="cls-2" d="m1102.22,605.63h0c1.4-1.73,3.51-2.74,5.74-2.74h72.75c2.23,0,4.34,1.01,5.74,2.74h0c3.9,4.83.47,12.02-5.74,12.02h-72.75c-6.21,0-9.64-7.2-5.74-12.03Zm56.1-40.55h0c-7.19-8.9-20.76-8.9-27.96,0h0c-9.5,11.75-1.14,29.28,13.98,29.28h0c15.11,0,23.48-17.52,13.98-29.27Zm-80.89,69.95l5,5.92h128.91s0-6.49,0-6.49l-7.15-8.27h-119.7l-7.06,8.84Z"/><polygon class="cls-2" points="1119.87 528.35 945.16 325.64 1199.27 46.49 1199.27 40 1079.64 40 826.45 322.86 826.45 40 720.73 40 720.73 640.96 826.45 640.96 826.45 337.7 1053.84 607.1 1119.87 528.35"/></g><path class="cls-2" d="m26.98,745.52l1866.05-12.48v24.95l-1866.05-12.47h0Zm0,282l1866.05,12.47v-24.95l-1866.05,12.48h0Z"/></svg>