<?xml version="1.0" encoding="UTF-8"?><svg id="Layer_1" xmlns="http://www.w3.org/2000/svg" viewBox="0 0 1700 1080"><defs><style>.cls-1{fill:#a6a4a4;}.cls-2{fill:#ea2227;}.cls-3{fill:#20295c;}</style></defs><g><path class="cls-3" d="m59.3,975.96c-.82-.49-1.47-1.15-1.96-1.97-.5-.81-.74-1.69-.74-2.62,0-.99.25-1.89.74-2.71.49-.81,1.15-1.47,1.96-1.97.81-.49,1.69-.74,2.62-.74.99,0,1.89.25,2.71.74.81.5,1.47,1.15,1.96,1.97.49.82.74,1.72.74,2.71,0,.93-.25,1.8-.74,2.62-.5.82-1.15,1.47-1.96,1.97-.82.49-1.72.74-2.71.74-.93,0-1.8-.25-2.62-.74Zm-1.05,46.75v-38.24l7.51-.87v39.11h-7.51Z"/><path class="cls-3" d="m136.39,986.22c1.98,1.86,2.97,4.89,2.97,9.08v27.41h-7.51v-24.36c0-2.15-.2-3.83-.61-5.02-.41-1.19-1.05-2.05-1.92-2.58-.87-.52-2.1-.79-3.67-.79-1.69,0-3.46.25-5.33.74-1.86.49-3.61,1.15-5.24,1.96.12,1.17.17,2.04.17,2.62v27.41h-7.51v-24.36c0-2.15-.19-3.83-.57-5.02-.38-1.19-1-2.05-1.88-2.58s-2.1-.79-3.67-.79-3.35.25-5.15.74c-1.8.49-3.52,1.12-5.15,1.88v30.12h-7.51v-38.24l7.51-.87v3.67c4.48-2.56,8.85-3.84,13.1-3.84s7.33,1.43,9.08,4.28c2.1-1.22,4.47-2.24,7.12-3.06,2.65-.81,5.25-1.22,7.81-1.22,3.32,0,5.97.93,7.94,2.79Z"/><path class="cls-3" d="m185.54,986.04c2.39,1.75,4.15,4.07,5.28,6.98,1.14,2.91,1.7,6.08,1.7,9.52,0,4.42-.86,8.24-2.58,11.44-1.72,3.2-4.06,5.63-7.03,7.29-2.97,1.66-6.34,2.49-10.13,2.49-2.85,0-5.62-.38-8.29-1.13v16.33h-7.51v-54.48l7.51-.87v3.4c2.1-1.16,4.18-2.05,6.24-2.66,2.07-.61,4-.92,5.81-.92,3.61,0,6.61.87,8.99,2.62Zm-7.03,30.16c1.83-1.08,3.29-2.75,4.37-5.02,1.08-2.27,1.62-5.09,1.62-8.47,0-4.36-.87-7.6-2.62-9.69-1.75-2.1-4.22-3.14-7.42-3.14-3.38,0-6.69.96-9.95,2.88v23.75c2.74.87,5.3,1.31,7.68,1.31s4.5-.54,6.33-1.61Z"/><path class="cls-3" d="m233.25,986.48c2.24,2.04,3.36,5.24,3.36,9.6v26.63h-6.81l-.44-3.32c-4.02,2.91-8.64,4.36-13.88,4.36-2.21,0-4.19-.42-5.94-1.27-1.75-.84-3.1-2.04-4.06-3.58-.96-1.54-1.44-3.3-1.44-5.28,0-3.2,1.14-5.86,3.41-7.99,2.27-2.12,5.3-3.68,9.08-4.67,3.78-.99,7.97-1.54,12.57-1.66v-1.92c0-2.62-.52-4.52-1.57-5.72-1.05-1.19-2.82-1.79-5.33-1.79-4.25,0-8.67,1.51-13.27,4.54l-3.32-5.24c5.59-3.84,11.44-5.76,17.55-5.76,4.48,0,7.84,1.02,10.08,3.06Zm-19.82,29.77c.9.76,2.25,1.14,4.06,1.14,3.96,0,7.83-1.16,11.61-3.49v-9.08c-5.06.23-9.17,1.02-12.31,2.36-3.14,1.34-4.71,3.23-4.71,5.68,0,1.51.45,2.65,1.35,3.4Z"/><path class="cls-3" d="m256.08,1019.18c-3.26-3.06-4.89-7.93-4.89-14.62,0-4.83.93-8.83,2.79-12,1.86-3.17,4.26-5.48,7.2-6.94,2.94-1.45,6.07-2.18,9.39-2.18,3.84,0,7.86,1.11,12.05,3.32l-2.79,5.76c-2.04-.99-3.8-1.69-5.28-2.1-1.48-.41-3.01-.61-4.58-.61-3.43,0-6.11,1.3-8.03,3.89-1.92,2.59-2.88,6.21-2.88,10.87s.97,7.8,2.92,9.78c1.95,1.98,4.58,2.97,7.9,2.97,1.98,0,3.77-.31,5.37-.92,1.6-.61,3.36-1.47,5.28-2.57l2.97,5.33c-2.15,1.4-4.38,2.52-6.68,3.36-2.3.84-4.85,1.27-7.64,1.27-5.47,0-9.84-1.53-13.1-4.58Z"/><path class="cls-3" d="m320.86,1021.32c-3.03,1.63-6.23,2.44-9.6,2.44-3.61,0-6.46-1.03-8.56-3.1-2.1-2.06-3.14-5.16-3.14-9.3v-20.95h-7.68v-5.94h7.68v-8.64l7.51-1.22v9.87h12.92l-.79,5.94h-12.14v19.73c0,4.89,1.8,7.33,5.41,7.33,1.05,0,2.07-.12,3.06-.35s2.07-.61,3.23-1.14l2.09,5.33Z"/><path class="cls-3" d="m335.18,975.96c-.82-.49-1.47-1.15-1.96-1.97-.49-.81-.74-1.69-.74-2.62,0-.99.25-1.89.74-2.71.49-.81,1.15-1.47,1.96-1.97.81-.49,1.69-.74,2.62-.74.99,0,1.89.25,2.71.74.81.5,1.47,1.15,1.96,1.97.49.82.74,1.72.74,2.71,0,.93-.25,1.8-.74,2.62-.49.82-1.15,1.47-1.96,1.97-.82.49-1.72.74-2.71.74-.93,0-1.81-.25-2.62-.74Zm-1.05,46.75v-38.24l7.51-.87v39.11h-7.51Z"/><path class="cls-3" d="m392.89,995.56v27.15h-7.51v-24.36c0-2.15-.22-3.83-.65-5.02-.44-1.19-1.16-2.05-2.18-2.58-1.02-.52-2.4-.79-4.15-.79s-3.61.25-5.59.74c-1.98.49-3.84,1.15-5.59,1.96v30.03h-7.51v-38.24l7.51-.87v3.67c4.89-2.56,9.54-3.84,13.97-3.84,7.8,0,11.7,4.05,11.7,12.14Z"/><path class="cls-3" d="m440.43,1018.09c2.18.76,3.83,1.83,4.93,3.23,1.11,1.4,1.66,3.2,1.66,5.41,0,2.68-.86,5.02-2.58,7.03-1.72,2.01-4.18,3.55-7.38,4.63-3.2,1.08-7.01,1.62-11.44,1.62-5.65,0-10.16-.9-13.53-2.71-3.38-1.81-5.06-4.51-5.06-8.12,0-2.21.54-4.05,1.61-5.5,1.08-1.45,2.63-2.82,4.67-4.1-1.75-1.22-2.62-2.79-2.62-4.72,0-1.16.33-2.24,1-3.23.67-.99,1.73-2.01,3.19-3.06-2.1-1.16-3.67-2.71-4.71-4.63-1.05-1.92-1.57-4.13-1.57-6.63,0-3.2.8-5.85,2.4-7.94,1.6-2.1,3.71-3.61,6.33-4.54,2.62-.93,5.53-1.4,8.73-1.4,1.63,0,3.32.15,5.06.44l13.01-5.41,2.62,6.11-8.9,2.53c1.69,1.28,2.94,2.81,3.75,4.58.81,1.78,1.22,3.68,1.22,5.72,0,4.71-1.65,8.15-4.93,10.3-3.29,2.15-7.47,3.23-12.53,3.23-2.27,0-4.22-.2-5.85-.61-.76.82-1.14,1.72-1.14,2.71,0,.64.23,1.15.7,1.53.47.38,1.22.67,2.27.87,1.05.2,2.53.39,4.45.57l6.2.52c3.43.29,6.24.82,8.42,1.57Zm-5.15,14.58c2.53-.99,3.8-2.62,3.8-4.89,0-1.05-.35-1.91-1.05-2.58-.7-.67-1.78-1.19-3.23-1.57-1.46-.38-3.38-.69-5.76-.92l-6.2-.52c-1.86-.17-3.58-.44-5.15-.79-1.11.99-1.97,2.05-2.58,3.19s-.92,2.28-.92,3.45c0,2.04.93,3.56,2.79,4.58,1.86,1.02,4.8,1.53,8.82,1.53,3.78,0,6.94-.5,9.47-1.48Zm-16.85-41.38c-1.54,1.51-2.31,3.49-2.31,5.94s.79,4.48,2.36,5.94c1.57,1.45,4.05,2.18,7.42,2.18,6.29,0,9.43-2.62,9.43-7.86,0-2.62-.83-4.68-2.49-6.2-1.66-1.51-4.03-2.27-7.12-2.27-3.32,0-5.75.76-7.29,2.27Z"/><path class="cls-3" d="m488.49,1019.18c-3.26-3.06-4.89-7.93-4.89-14.62,0-4.83.93-8.83,2.79-12,1.86-3.17,4.26-5.48,7.2-6.94,2.94-1.45,6.07-2.18,9.39-2.18,3.84,0,7.86,1.11,12.05,3.32l-2.79,5.76c-2.04-.99-3.8-1.69-5.28-2.1-1.48-.41-3.01-.61-4.58-.61-3.44,0-6.11,1.3-8.03,3.89-1.92,2.59-2.88,6.21-2.88,10.87s.97,7.8,2.92,9.78c1.95,1.98,4.58,2.97,7.9,2.97,1.98,0,3.77-.31,5.37-.92,1.6-.61,3.36-1.47,5.28-2.57l2.97,5.33c-2.15,1.4-4.38,2.52-6.68,3.36-2.3.84-4.85,1.27-7.64,1.27-5.47,0-9.84-1.53-13.1-4.58Z"/><path class="cls-3" d="m534.15,1021.1c-2.74-1.77-4.77-4.19-6.11-7.25-1.34-3.06-2.01-6.5-2.01-10.35,0-4.66.87-8.48,2.62-11.48,1.75-3,4.1-5.18,7.07-6.55,2.97-1.37,6.34-2.05,10.13-2.05,4.07,0,7.48.89,10.22,2.66,2.73,1.78,4.77,4.18,6.11,7.2,1.34,3.03,2.01,6.46,2.01,10.3,0,4.72-.87,8.57-2.62,11.57-1.75,3-4.1,5.18-7.07,6.55-2.97,1.37-6.34,2.05-10.13,2.05-4.07,0-7.48-.89-10.21-2.66Zm22.17-17.59c0-4.25-.92-7.64-2.75-10.17-1.83-2.53-4.58-3.8-8.25-3.8-4.07,0-7,1.24-8.77,3.71-1.78,2.48-2.66,5.89-2.66,10.26s.93,7.74,2.79,10.3c1.86,2.56,4.66,3.84,8.38,3.84,7.51,0,11.26-4.71,11.26-14.14Z"/><path class="cls-3" d="m631.76,986.22c1.98,1.86,2.97,4.89,2.97,9.08v27.41h-7.51v-24.36c0-2.15-.21-3.83-.61-5.02-.41-1.19-1.05-2.05-1.92-2.58-.87-.52-2.1-.79-3.67-.79-1.69,0-3.46.25-5.33.74-1.86.49-3.61,1.15-5.24,1.96.12,1.17.17,2.04.17,2.62v27.41h-7.51v-24.36c0-2.15-.19-3.83-.57-5.02-.38-1.19-1-2.05-1.88-2.58-.87-.52-2.1-.79-3.67-.79s-3.35.25-5.15.74c-1.81.49-3.52,1.12-5.15,1.88v30.12h-7.51v-38.24l7.51-.87v3.67c4.48-2.56,8.85-3.84,13.1-3.84s7.33,1.43,9.08,4.28c2.1-1.22,4.47-2.24,7.12-3.06,2.65-.81,5.25-1.22,7.81-1.22,3.32,0,5.97.93,7.94,2.79Z"/><path class="cls-3" d="m704.92,986.22c1.98,1.86,2.97,4.89,2.97,9.08v27.41h-7.51v-24.36c0-2.15-.21-3.83-.61-5.02-.41-1.19-1.05-2.05-1.92-2.58s-2.1-.79-3.67-.79c-1.69,0-3.46.25-5.33.74-1.86.49-3.61,1.15-5.24,1.96.12,1.17.17,2.04.17,2.62v27.41h-7.51v-24.36c0-2.15-.19-3.83-.57-5.02-.38-1.19-1-2.05-1.88-2.58-.87-.52-2.1-.79-3.67-.79s-3.35.25-5.15.74c-1.81.49-3.52,1.12-5.15,1.88v30.12h-7.51v-38.24l7.51-.87v3.67c4.48-2.56,8.85-3.84,13.1-3.84s7.33,1.43,9.08,4.28c2.1-1.22,4.47-2.24,7.12-3.06,2.65-.81,5.25-1.22,7.81-1.22,3.32,0,5.97.93,7.94,2.79Z"/><path class="cls-3" d="m757.92,983.6v39.11h-6.72l-.44-2.88c-4.48,2.62-9.02,3.93-13.62,3.93-3.55,0-6.45-1-8.69-3.01-2.24-2.01-3.36-5.05-3.36-9.12v-27.15l7.51-.87v25.84c0,1.92.23,3.45.7,4.58.46,1.13,1.22,1.95,2.27,2.44s2.5.74,4.36.74c2.79,0,6.29-1.08,10.48-3.23v-29.51l7.51-.87Z"/><path class="cls-3" d="m809.17,995.56v27.15h-7.51v-24.36c0-2.15-.22-3.83-.65-5.02-.44-1.19-1.16-2.05-2.18-2.58-1.02-.52-2.4-.79-4.15-.79s-3.61.25-5.59.74c-1.98.49-3.84,1.15-5.59,1.96v30.03h-7.51v-38.24l7.51-.87v3.67c4.89-2.56,9.54-3.84,13.97-3.84,7.8,0,11.7,4.05,11.7,12.14Z"/><path class="cls-3" d="m827.85,975.96c-.82-.49-1.47-1.15-1.96-1.97-.49-.81-.74-1.69-.74-2.62,0-.99.25-1.89.74-2.71.49-.81,1.15-1.47,1.96-1.97.81-.49,1.69-.74,2.62-.74.99,0,1.89.25,2.71.74.81.5,1.47,1.15,1.96,1.97.49.82.74,1.72.74,2.71,0,.93-.25,1.8-.74,2.62-.49.82-1.15,1.47-1.96,1.97-.82.49-1.72.74-2.71.74-.93,0-1.81-.25-2.62-.74Zm-1.05,46.75v-38.24l7.51-.87v39.11h-7.51Z"/><path class="cls-3" d="m876.57,1021.32c-3.03,1.63-6.23,2.44-9.6,2.44-3.61,0-6.46-1.03-8.56-3.1-2.1-2.06-3.14-5.16-3.14-9.3v-20.95h-7.68v-5.94h7.68v-8.64l7.51-1.22v9.87h12.92l-.79,5.94h-12.14v19.73c0,4.89,1.8,7.33,5.41,7.33,1.05,0,2.06-.12,3.06-.35.99-.23,2.06-.61,3.23-1.14l2.09,5.33Z"/><path class="cls-3" d="m890.88,975.96c-.82-.49-1.47-1.15-1.96-1.97-.49-.81-.74-1.69-.74-2.62,0-.99.25-1.89.74-2.71.49-.81,1.15-1.47,1.96-1.97.81-.49,1.69-.74,2.62-.74.99,0,1.89.25,2.71.74.81.5,1.47,1.15,1.96,1.97.49.82.74,1.72.74,2.71,0,.93-.25,1.8-.74,2.62-.49.82-1.15,1.47-1.96,1.97-.82.49-1.72.74-2.71.74-.93,0-1.81-.25-2.62-.74Zm-1.05,46.75v-38.24l7.51-.87v39.11h-7.51Z"/><path class="cls-3" d="m946.59,1004.9h-26.63c.06,4.36,1.12,7.54,3.19,9.52,2.07,1.98,4.73,2.97,7.99,2.97,2.33,0,4.35-.29,6.07-.87,1.72-.58,3.62-1.48,5.72-2.71l2.88,5.33c-4.77,3.09-9.78,4.63-15.02,4.63-5.59,0-10.05-1.56-13.4-4.67-3.35-3.11-5.02-8.05-5.02-14.8,0-3.84.7-7.33,2.1-10.48,1.4-3.14,3.48-5.66,6.24-7.55,2.76-1.89,6.16-2.84,10.17-2.84,3.37,0,6.26.69,8.64,2.05,2.39,1.37,4.19,3.24,5.41,5.63,1.22,2.39,1.83,5.12,1.83,8.21l-.18,5.59Zm-22.83-12.92c-1.72,1.81-2.84,4.28-3.36,7.42h19.03v-.35c0-3.26-.74-5.7-2.23-7.33-1.48-1.63-3.6-2.44-6.33-2.44-3.03,0-5.4.9-7.12,2.71Z"/><path class="cls-3" d="m965.01,1022.49c-2.74-.84-5.27-2.14-7.6-3.88l3.32-5.33c4.25,3.03,8.67,4.54,13.27,4.54,2.62,0,4.63-.45,6.02-1.35,1.4-.9,2.1-2.23,2.1-3.97,0-1.4-.63-2.6-1.88-3.62-1.25-1.02-3.45-1.93-6.59-2.75l-2.71-.7c-4.07-1.05-7.06-2.43-8.95-4.15-1.89-1.72-2.84-4-2.84-6.85,0-2.15.61-4.06,1.83-5.72,1.22-1.66,2.93-2.95,5.11-3.88,2.18-.93,4.64-1.4,7.38-1.4s5.14.31,7.55.92,4.87,1.65,7.38,3.1l-3.06,5.33c-2.39-1.28-4.45-2.17-6.2-2.66-1.75-.49-3.61-.74-5.59-.74-2.1,0-3.74.42-4.93,1.27-1.19.84-1.79,1.96-1.79,3.36,0,1.22.48,2.17,1.44,2.84.96.67,2.63,1.32,5.02,1.97l2.71.7c3.32.87,5.98,1.86,7.99,2.97,2.01,1.11,3.48,2.43,4.41,3.97.93,1.54,1.4,3.39,1.4,5.54,0,2.33-.6,4.38-1.79,6.15-1.19,1.78-2.95,3.16-5.28,4.15-2.33.99-5.15,1.48-8.47,1.48s-6.52-.42-9.25-1.27Z"/><path class="cls-1" d="m1033.45,1038.95v-82.15h6.81v82.15h-6.81Z"/><path class="cls-2" d="m1089.24,1019.18c-3.26-3.06-4.89-7.93-4.89-14.62,0-4.83.93-8.83,2.79-12,1.86-3.17,4.26-5.48,7.2-6.94,2.94-1.45,6.07-2.18,9.39-2.18,3.84,0,7.86,1.11,12.05,3.32l-2.79,5.76c-2.04-.99-3.8-1.69-5.28-2.1-1.48-.41-3.01-.61-4.58-.61-3.44,0-6.11,1.3-8.03,3.89-1.92,2.59-2.88,6.21-2.88,10.87s.97,7.8,2.92,9.78,4.58,2.97,7.9,2.97c1.98,0,3.77-.31,5.37-.92,1.6-.61,3.36-1.47,5.28-2.57l2.97,5.33c-2.15,1.4-4.38,2.52-6.68,3.36-2.3.84-4.85,1.27-7.64,1.27-5.47,0-9.84-1.53-13.1-4.58Z"/><path class="cls-2" d="m1159.7,986.22c2.1,1.86,3.14,4.89,3.14,9.08v27.41h-7.51v-24.36c0-2.15-.22-3.83-.65-5.02-.44-1.19-1.17-2.05-2.18-2.58-1.02-.52-2.4-.79-4.15-.79s-3.6.23-5.54.7c-1.95.47-3.77,1.11-5.46,1.92v30.12h-7.51v-60.07l7.51-.87v25.41c4.77-2.5,9.37-3.75,13.79-3.75,3.61,0,6.46.93,8.56,2.79Z"/><path class="cls-2" d="m1206.19,986.48c2.24,2.04,3.36,5.24,3.36,9.6v26.63h-6.81l-.44-3.32c-4.02,2.91-8.64,4.36-13.88,4.36-2.21,0-4.19-.42-5.94-1.27-1.75-.84-3.1-2.04-4.06-3.58-.96-1.54-1.44-3.3-1.44-5.28,0-3.2,1.13-5.86,3.4-7.99,2.27-2.12,5.3-3.68,9.08-4.67,3.78-.99,7.97-1.54,12.57-1.66v-1.92c0-2.62-.52-4.52-1.57-5.72-1.05-1.19-2.82-1.79-5.33-1.79-4.25,0-8.67,1.51-13.27,4.54l-3.32-5.24c5.59-3.84,11.44-5.76,17.55-5.76,4.48,0,7.84,1.02,10.08,3.06Zm-19.82,29.77c.9.76,2.26,1.14,4.06,1.14,3.96,0,7.83-1.16,11.61-3.49v-9.08c-5.06.23-9.17,1.02-12.31,2.36-3.14,1.34-4.71,3.23-4.71,5.68,0,1.51.45,2.65,1.35,3.4Z"/><path class="cls-2" d="m1260.36,995.56v27.15h-7.51v-24.36c0-2.15-.22-3.83-.65-5.02-.44-1.19-1.16-2.05-2.18-2.58-1.02-.52-2.4-.79-4.15-.79s-3.61.25-5.59.74c-1.98.49-3.84,1.15-5.59,1.96v30.03h-7.51v-38.24l7.51-.87v3.67c4.89-2.56,9.54-3.84,13.97-3.84,7.8,0,11.7,4.05,11.7,12.14Z"/><path class="cls-2" d="m1307.9,1018.09c2.18.76,3.83,1.83,4.93,3.23,1.11,1.4,1.66,3.2,1.66,5.41,0,2.68-.86,5.02-2.58,7.03-1.72,2.01-4.18,3.55-7.38,4.63-3.2,1.08-7.01,1.62-11.44,1.62-5.65,0-10.16-.9-13.53-2.71-3.38-1.81-5.06-4.51-5.06-8.12,0-2.21.54-4.05,1.61-5.5,1.08-1.45,2.63-2.82,4.67-4.1-1.75-1.22-2.62-2.79-2.62-4.72,0-1.16.33-2.24,1-3.23.67-.99,1.73-2.01,3.19-3.06-2.1-1.16-3.67-2.71-4.71-4.63-1.05-1.92-1.57-4.13-1.57-6.63,0-3.2.8-5.85,2.4-7.94,1.6-2.1,3.71-3.61,6.33-4.54,2.62-.93,5.53-1.4,8.73-1.4,1.63,0,3.32.15,5.06.44l13.01-5.41,2.62,6.11-8.9,2.53c1.69,1.28,2.94,2.81,3.75,4.58.81,1.78,1.22,3.68,1.22,5.72,0,4.71-1.65,8.15-4.93,10.3-3.29,2.15-7.47,3.23-12.53,3.23-2.27,0-4.22-.2-5.85-.61-.76.82-1.14,1.72-1.14,2.71,0,.64.23,1.15.7,1.53.47.38,1.22.67,2.27.87,1.05.2,2.53.39,4.45.57l6.2.52c3.43.29,6.24.82,8.42,1.57Zm-5.15,14.58c2.53-.99,3.8-2.62,3.8-4.89,0-1.05-.35-1.91-1.05-2.58-.7-.67-1.78-1.19-3.23-1.57-1.46-.38-3.38-.69-5.76-.92l-6.2-.52c-1.86-.17-3.58-.44-5.15-.79-1.11.99-1.97,2.05-2.58,3.19-.61,1.14-.92,2.28-.92,3.45,0,2.04.93,3.56,2.79,4.58,1.86,1.02,4.8,1.53,8.82,1.53,3.78,0,6.94-.5,9.47-1.48Zm-16.85-41.38c-1.54,1.51-2.31,3.49-2.31,5.94s.79,4.48,2.36,5.94c1.57,1.45,4.05,2.18,7.42,2.18,6.29,0,9.43-2.62,9.43-7.86,0-2.62-.83-4.68-2.49-6.2-1.66-1.51-4.03-2.27-7.12-2.27-3.32,0-5.75.76-7.29,2.27Z"/><path class="cls-2" d="m1328.37,975.96c-.82-.49-1.47-1.15-1.96-1.97-.49-.81-.74-1.69-.74-2.62,0-.99.25-1.89.74-2.71.49-.81,1.15-1.47,1.96-1.97.81-.49,1.69-.74,2.62-.74.99,0,1.89.25,2.71.74.81.5,1.47,1.15,1.96,1.97.49.82.74,1.72.74,2.71,0,.93-.25,1.8-.74,2.62-.49.82-1.15,1.47-1.96,1.97-.82.49-1.72.74-2.71.74-.93,0-1.81-.25-2.62-.74Zm-1.05,46.75v-38.24l7.51-.87v39.11h-7.51Z"/><path class="cls-2" d="m1386.08,995.56v27.15h-7.51v-24.36c0-2.15-.22-3.83-.65-5.02-.44-1.19-1.16-2.05-2.18-2.58-1.02-.52-2.4-.79-4.15-.79s-3.61.25-5.59.74c-1.98.49-3.84,1.15-5.59,1.96v30.03h-7.51v-38.24l7.51-.87v3.67c4.89-2.56,9.54-3.84,13.97-3.84,7.8,0,11.7,4.05,11.7,12.14Z"/><path class="cls-2" d="m1433.62,1018.09c2.18.76,3.83,1.83,4.93,3.23,1.11,1.4,1.66,3.2,1.66,5.41,0,2.68-.86,5.02-2.58,7.03-1.72,2.01-4.18,3.55-7.38,4.63-3.2,1.08-7.01,1.62-11.44,1.62-5.65,0-10.16-.9-13.53-2.71-3.38-1.81-5.06-4.51-5.06-8.12,0-2.21.54-4.05,1.61-5.5,1.08-1.45,2.63-2.82,4.67-4.1-1.75-1.22-2.62-2.79-2.62-4.72,0-1.16.33-2.24,1-3.23.67-.99,1.73-2.01,3.19-3.06-2.1-1.16-3.67-2.71-4.71-4.63-1.05-1.92-1.57-4.13-1.57-6.63,0-3.2.8-5.85,2.4-7.94,1.6-2.1,3.71-3.61,6.33-4.54,2.62-.93,5.53-1.4,8.73-1.4,1.63,0,3.32.15,5.06.44l13.01-5.41,2.62,6.11-8.9,2.53c1.69,1.28,2.94,2.81,3.75,4.58.81,1.78,1.22,3.68,1.22,5.72,0,4.71-1.65,8.15-4.93,10.3-3.29,2.15-7.47,3.23-12.53,3.23-2.27,0-4.22-.2-5.85-.61-.76.82-1.14,1.72-1.14,2.71,0,.64.23,1.15.7,1.53.47.38,1.22.67,2.27.87,1.05.2,2.53.39,4.45.57l6.2.52c3.43.29,6.24.82,8.42,1.57Zm-5.15,14.58c2.53-.99,3.8-2.62,3.8-4.89,0-1.05-.35-1.91-1.05-2.58-.7-.67-1.78-1.19-3.23-1.57-1.46-.38-3.38-.69-5.76-.92l-6.2-.52c-1.86-.17-3.58-.44-5.15-.79-1.11.99-1.97,2.05-2.58,3.19-.61,1.14-.92,2.28-.92,3.45,0,2.04.93,3.56,2.79,4.58,1.86,1.02,4.8,1.53,8.82,1.53,3.78,0,6.94-.5,9.47-1.48Zm-16.85-41.38c-1.54,1.51-2.31,3.49-2.31,5.94s.79,4.48,2.36,5.94c1.57,1.45,4.05,2.18,7.42,2.18,6.29,0,9.43-2.62,9.43-7.86,0-2.62-.83-4.68-2.49-6.2-1.66-1.51-4.03-2.27-7.12-2.27-3.32,0-5.75.76-7.29,2.27Z"/><path class="cls-2" d="m1479.85,1022.71v-60.07l7.51-.87v60.94h-7.51Z"/><path class="cls-2" d="m1506.48,975.96c-.82-.49-1.47-1.15-1.96-1.97-.49-.81-.74-1.69-.74-2.62,0-.99.25-1.89.74-2.71.49-.81,1.15-1.47,1.96-1.97.81-.49,1.69-.74,2.62-.74.99,0,1.89.25,2.71.74.81.5,1.47,1.15,1.96,1.97.49.82.74,1.72.74,2.71,0,.93-.25,1.8-.74,2.62-.49.82-1.15,1.47-1.96,1.97-.82.49-1.72.74-2.71.74-.93,0-1.81-.25-2.62-.74Zm-1.05,46.75v-38.24l7.51-.87v39.11h-7.51Z"/><path class="cls-2" d="m1563.49,984.47v.52l-15.28,37.72h-6.9l-15.63-37.72v-.52h8.21l9.25,24.62c.23.58.7,1.92,1.4,4.02l.52,1.66c.58-1.98,1.19-3.87,1.83-5.68l8.73-24.62h7.86Z"/><path class="cls-2" d="m1606.09,1004.9h-26.63c.06,4.36,1.12,7.54,3.19,9.52,2.07,1.98,4.73,2.97,7.99,2.97,2.33,0,4.35-.29,6.07-.87,1.72-.58,3.62-1.48,5.72-2.71l2.88,5.33c-4.77,3.09-9.78,4.63-15.02,4.63-5.59,0-10.05-1.56-13.4-4.67-3.35-3.11-5.02-8.05-5.02-14.8,0-3.84.7-7.33,2.1-10.48,1.4-3.14,3.48-5.66,6.24-7.55,2.76-1.89,6.16-2.84,10.17-2.84,3.37,0,6.26.69,8.64,2.05,2.39,1.37,4.19,3.24,5.41,5.63,1.22,2.39,1.83,5.12,1.83,8.21l-.18,5.59Zm-22.83-12.92c-1.72,1.81-2.84,4.28-3.36,7.42h19.03v-.35c0-3.26-.74-5.7-2.23-7.33-1.48-1.63-3.6-2.44-6.33-2.44-3.03,0-5.4.9-7.12,2.71Z"/><path class="cls-2" d="m1624.52,1022.49c-2.74-.84-5.27-2.14-7.6-3.88l3.32-5.33c4.25,3.03,8.67,4.54,13.27,4.54,2.62,0,4.63-.45,6.02-1.35,1.4-.9,2.1-2.23,2.1-3.97,0-1.4-.63-2.6-1.88-3.62-1.25-1.02-3.45-1.93-6.59-2.75l-2.71-.7c-4.07-1.05-7.06-2.43-8.95-4.15-1.89-1.72-2.84-4-2.84-6.85,0-2.15.61-4.06,1.83-5.72,1.22-1.66,2.93-2.95,5.11-3.88,2.18-.93,4.64-1.4,7.38-1.4s5.14.31,7.55.92,4.87,1.65,7.38,3.1l-3.06,5.33c-2.39-1.28-4.45-2.17-6.2-2.66-1.75-.49-3.61-.74-5.59-.74-2.1,0-3.74.42-4.93,1.27-1.19.84-1.79,1.96-1.79,3.36,0,1.22.48,2.17,1.44,2.84.96.67,2.63,1.32,5.02,1.97l2.71.7c3.32.87,5.98,1.86,7.99,2.97,2.01,1.11,3.48,2.43,4.41,3.97.93,1.54,1.4,3.39,1.4,5.54,0,2.33-.6,4.38-1.79,6.15-1.19,1.78-2.95,3.16-5.28,4.15-2.33.99-5.15,1.48-8.47,1.48s-6.52-.42-9.25-1.27Z"/></g><g><g><path class="cls-1" d="m193.67,710.84c6.88,3.26,12,7.69,15.38,13.3,3.38,5.61,5.07,12.1,5.07,19.46,0,7.84-1.77,14.81-5.31,20.9-3.54,6.1-8.88,10.86-16.02,14.3-7.14,3.44-15.84,5.16-26.09,5.16h-15.02v39.28h-24.98v-117.29h41.09c10.38,0,19,1.63,25.88,4.89Zm-12.07,48.23c4.06-2.83,6.1-7.75,6.1-14.75,0-5.91-1.82-10.35-5.45-13.3-3.63-2.96-8.71-4.43-15.24-4.43h-15.33v36.74h12.56c7.51,0,13.3-1.42,17.36-4.25Z"/><path class="cls-1" d="m369.6,705.95l42.17,115.84v1.45h-27.33l-9.41-28.05h-43.44l-9.23,28.05h-26.97v-1.45l42.17-115.84h32.04Zm-31.13,68.6h29.68l-15.02-44.71-14.66,44.71Z"/><path class="cls-1" d="m606.89,821.79v1.45h-28.72l-29.45-42.71h-9.88v42.71h-24.98v-117.29h39.28c10.38,0,19.03,1.6,25.97,4.8,6.94,3.2,12.1,7.54,15.48,13.03,3.38,5.49,5.07,11.74,5.07,18.73,0,8.21-2.05,15.29-6.15,21.27-4.1,5.97-10.14,10.41-18.1,13.3l31.49,44.71Zm-68.05-60.63h11.28c7.4,0,13.1-1.39,17.1-4.16,4.01-2.77,6.01-7.36,6.01-13.76,0-5.55-1.79-9.71-5.36-12.49-3.57-2.77-8.57-4.16-14.97-4.16h-14.05v34.57Z"/><path class="cls-1" d="m794.22,705.95v21.9h-37.29v95.39h-24.98v-95.39h-37.47v-21.9h99.73Z"/><path class="cls-1" d="m1000.37,705.95v117.29h-27.87l-36.87-54.66c-3.15-4.83-5.81-9.02-7.99-12.58-2.18-3.56-4.3-7.57-6.36-12.04v79.28h-24.98v-117.29h27.51l40.14,60.09c.48.72,1.57,2.38,3.27,4.98,1.69,2.6,3.24,5.04,4.63,7.33,1.39,2.29,2.57,4.53,3.54,6.7v-79.1h24.98Z"/><path class="cls-1" d="m1137.93,802.24h54.3v21h-79.28v-117.29h78.37v20.82h-53.39v26.43h46.15l-2.94,20.63h-43.21v28.42Z"/><path class="cls-1" d="m1392.95,821.79v1.45h-28.72l-29.45-42.71h-9.88v42.71h-24.98v-117.29h39.28c10.38,0,19.03,1.6,25.97,4.8,6.94,3.2,12.1,7.54,15.48,13.03,3.38,5.49,5.07,11.74,5.07,18.73,0,8.21-2.05,15.29-6.15,21.27-4.1,5.97-10.14,10.41-18.1,13.3l31.49,44.71Zm-68.05-60.63h11.28c7.4,0,13.1-1.39,17.1-4.16,4.01-2.77,6.01-7.36,6.01-13.76,0-5.55-1.79-9.71-5.36-12.49-3.57-2.77-8.57-4.16-14.97-4.16h-14.05v34.57Z"/><path class="cls-1" d="m1486.16,811.65l11.58-17.92c11.22,7.12,22.2,10.68,32.94,10.68,6.88,0,12.28-1.09,16.2-3.26,3.92-2.17,5.88-5.43,5.88-9.77,0-2.65-.63-4.86-1.9-6.61-1.27-1.75-3.5-3.44-6.7-5.07-3.2-1.63-8-3.71-14.39-6.24l-4.16-1.63c-7.72-3.01-13.94-5.91-18.64-8.69-4.71-2.77-8.45-6.33-11.22-10.68-2.78-4.34-4.16-9.83-4.16-16.47,0-7.36,2.11-13.48,6.34-18.37,4.22-4.89,9.65-8.48,16.29-10.77,6.64-2.29,13.69-3.44,21.18-3.44,6.76,0,13.73,1.12,20.91,3.35,7.18,2.23,14.03,5.52,20.54,9.86l-11.69,17.74c-5.76-3.5-10.85-6.03-15.29-7.6-4.44-1.57-9.23-2.35-14.39-2.35-5.76,0-10.11.97-13.04,2.9-2.94,1.93-4.41,4.53-4.41,7.78,0,2.05.6,3.89,1.8,5.52,1.2,1.63,3.36,3.26,6.48,4.89,3.12,1.63,7.62,3.53,13.5,5.7l3.96,1.45c7.68,2.9,13.88,5.61,18.62,8.15,4.74,2.53,8.73,6.15,11.97,10.86,3.24,4.71,4.86,10.8,4.86,18.28s-2.05,14.45-6.15,19.82c-4.1,5.37-9.68,9.38-16.74,12.04s-15.05,3.98-23.98,3.98c-18.1,0-33.48-4.71-46.15-14.12Z"/></g><g><path class="cls-3" d="m424.11,40l189.06,507.06v5.54h-94.93l-48.25-136.06h-205.67l-47.46,136.06h-92.55v-5.54L312.57,40h111.54Zm-134.48,303.76h154.25l-77.52-219.91-76.73,219.91Z"/><path class="cls-3" d="m1379.69,40l189.06,507.06v5.54h-94.93l-48.25-136.06h-205.67l-47.46,136.06h-92.55v-5.54l188.27-507.06h111.54Zm-134.48,303.76h154.25l-77.52-219.91-76.73,219.91Z"/><path class="cls-2" d="m967.83,522.46h0c1.2-1.48,3-2.34,4.9-2.34h62.05c1.9,0,3.7.86,4.9,2.34h0c3.33,4.12.4,10.26-4.9,10.26h-62.05c-5.3,0-8.23-6.14-4.9-10.26Zm47.85-34.59h0c-6.14-7.59-17.71-7.59-23.85,0h0c-8.11,10.03-.97,24.97,11.92,24.97h0c12.89,0,20.03-14.94,11.92-24.97Zm-69,59.67l4.26,5.05h109.96s0-5.54,0-5.54l-6.1-7.06h-102.1l-6.02,7.54Z"/><polygon class="cls-2" points="982.88 456.54 833.87 283.64 1050.61 45.54 1050.61 40 948.57 40 732.61 281.27 732.61 40 642.44 40 642.44 552.6 732.61 552.6 732.61 293.92 926.57 523.72 982.88 456.54"/></g><path class="cls-2" d="m50.69,641.79l1591.67-10.64v21.28l-1591.67-10.64h0Zm0,240.54l1591.67,10.64v-21.28l-1591.67,10.64h0Z"/></g></svg>