<?xml version="1.0" encoding="UTF-8"?>
<svg id="Layer_1" data-name="Layer 1" xmlns="http://www.w3.org/2000/svg" viewBox="0 0 702.69 120.05">
  <defs>
    <style>
      .cls-1 {
        fill: #fd562b;
      }
    </style>
  </defs>
  <g>
    <path class="cls-1" d="M299.29,52.8c-3.62,0-6.93-.65-9.96-1.96-3.02-1.3-5.64-3.13-7.86-5.49-2.22-2.36-3.95-5.14-5.18-8.34-1.24-3.2-1.85-6.73-1.85-10.57s.62-7.37,1.85-10.57c1.24-3.2,2.96-6,5.18-8.38,2.22-2.38,4.84-4.22,7.86-5.53,3.02-1.31,6.34-1.96,9.96-1.96s6.6.62,9.37,1.85c2.77,1.24,5.1,2.83,7,4.77,1.9,1.95,3.26,3.99,4.09,6.15l-5.15,2.27c-1.28-2.97-3.24-5.37-5.87-7.18-2.63-1.81-5.78-2.71-9.44-2.71s-7.1.89-10.03,2.68c-2.93,1.78-5.22,4.27-6.87,7.45-1.65,3.18-2.47,6.9-2.47,11.16s.82,7.92,2.47,11.12c1.65,3.2,3.94,5.69,6.87,7.45,2.93,1.76,6.27,2.64,10.03,2.64s6.81-.89,9.44-2.68c2.63-1.78,4.59-4.16,5.87-7.14l5.15,2.27c-.82,2.11-2.19,4.13-4.09,6.08-1.9,1.95-4.23,3.54-7,4.77-2.77,1.24-5.89,1.85-9.37,1.85Z"/>
    <path class="cls-1" d="M345.36,52.8c-3.48,0-6.64-.83-9.48-2.51-2.84-1.67-5.09-3.96-6.76-6.87-1.67-2.91-2.51-6.21-2.51-9.92s.82-6.94,2.47-9.82,3.88-5.16,6.69-6.83c2.82-1.67,6.01-2.51,9.58-2.51s6.76.82,9.58,2.47c2.82,1.65,5.04,3.91,6.66,6.8,1.62,2.88,2.44,6.18,2.44,9.89s-.85,7.08-2.54,9.99c-1.69,2.91-3.95,5.18-6.76,6.83-2.82,1.65-5.94,2.47-9.37,2.47ZM345.36,47.65c2.47,0,4.7-.62,6.69-1.85,1.99-1.24,3.57-2.93,4.74-5.08,1.17-2.15,1.75-4.55,1.75-7.21s-.58-5.04-1.75-7.14c-1.17-2.11-2.75-3.78-4.74-5.01-1.99-1.24-4.22-1.85-6.69-1.85s-4.7.62-6.7,1.85c-1.99,1.24-3.58,2.91-4.77,5.01-1.19,2.11-1.78,4.49-1.78,7.14s.59,5.06,1.78,7.21c1.19,2.15,2.78,3.85,4.77,5.08,1.99,1.24,4.22,1.85,6.7,1.85Z"/>
    <path class="cls-1" d="M373.1,51.98V15.18h5.15v7.14l-1.17-.27c.91-2.38,2.41-4.26,4.5-5.63,2.08-1.37,4.5-2.06,7.24-2.06s4.95.59,7.04,1.78c2.08,1.19,3.73,2.83,4.94,4.91,1.21,2.08,1.82,4.43,1.82,7.04v23.89h-5.15v-21.9c0-2.24-.4-4.14-1.2-5.7-.8-1.56-1.92-2.76-3.36-3.61-1.44-.85-3.1-1.27-4.98-1.27s-3.55.42-5.01,1.27c-1.47.85-2.61,2.06-3.43,3.64-.82,1.58-1.24,3.47-1.24,5.66v21.9h-5.15Z"/>
    <path class="cls-1" d="M412.45,51.98V15.18h5.15v7.14l-1.17-.27c.91-2.38,2.41-4.26,4.5-5.63,2.08-1.37,4.5-2.06,7.24-2.06s4.95.59,7.04,1.78c2.08,1.19,3.73,2.83,4.94,4.91,1.21,2.08,1.82,4.43,1.82,7.04v23.89h-5.15v-21.9c0-2.24-.4-4.14-1.2-5.7-.8-1.56-1.92-2.76-3.36-3.61-1.44-.85-3.1-1.27-4.98-1.27s-3.55.42-5.01,1.27c-1.47.85-2.61,2.06-3.43,3.64-.82,1.58-1.24,3.47-1.24,5.66v21.9h-5.15Z"/>
    <path class="cls-1" d="M468.55,52.8c-3.43,0-6.53-.83-9.3-2.51-2.77-1.67-4.96-3.97-6.56-6.9-1.6-2.93-2.4-6.25-2.4-9.96s.78-6.99,2.33-9.85c1.56-2.86,3.67-5.12,6.35-6.76,2.68-1.65,5.69-2.47,9.03-2.47,2.65,0,5.02.49,7.11,1.48,2.08.99,3.86,2.31,5.32,3.98,1.46,1.67,2.59,3.55,3.36,5.63.78,2.08,1.17,4.22,1.17,6.42,0,.46-.02.97-.07,1.54-.05.57-.12,1.16-.21,1.75h-31.1v-4.81h28.15l-2.47,2.06c.41-2.52.12-4.77-.86-6.76-.99-1.99-2.39-3.57-4.22-4.74-1.83-1.17-3.89-1.75-6.18-1.75s-4.41.59-6.35,1.78c-1.95,1.19-3.47,2.85-4.57,4.98-1.1,2.13-1.53,4.66-1.3,7.59-.23,2.93.24,5.48,1.41,7.66,1.17,2.18,2.77,3.86,4.81,5.05,2.04,1.19,4.22,1.78,6.56,1.78,2.7,0,4.97-.64,6.8-1.92,1.83-1.28,3.32-2.88,4.46-4.81l4.39,2.33c-.73,1.65-1.85,3.17-3.36,4.57-1.51,1.4-3.31,2.52-5.39,3.36-2.08.85-4.38,1.27-6.9,1.27Z"/>
    <path class="cls-1" d="M510.85,52.8c-3.62,0-6.8-.85-9.54-2.54-2.75-1.69-4.9-3.99-6.45-6.9-1.56-2.91-2.33-6.19-2.33-9.85s.78-6.94,2.33-9.82c1.56-2.88,3.71-5.16,6.45-6.83,2.75-1.67,5.93-2.51,9.54-2.51,2.29,0,4.44.41,6.45,1.24,2.01.82,3.8,1.93,5.36,3.33,1.56,1.4,2.72,3.01,3.5,4.84l-4.67,2.4c-.92-1.97-2.31-3.57-4.19-4.81-1.88-1.24-4.03-1.85-6.45-1.85s-4.61.61-6.56,1.82c-1.95,1.21-3.48,2.88-4.6,5.01-1.12,2.13-1.68,4.54-1.68,7.24s.56,5.05,1.68,7.18,2.65,3.81,4.6,5.05c1.95,1.24,4.13,1.85,6.56,1.85s4.57-.62,6.42-1.85c1.85-1.24,3.26-2.88,4.22-4.94l4.67,2.54c-.78,1.78-1.95,3.39-3.5,4.81-1.56,1.42-3.34,2.54-5.36,3.36-2.01.82-4.17,1.24-6.45,1.24Z"/>
    <path class="cls-1" d="M549.3,52.39c-3.3,0-5.84-.96-7.62-2.88-1.78-1.92-2.68-4.67-2.68-8.24v-20.94h-6.8v-5.15h1.72c1.56,0,2.79-.51,3.71-1.55.92-1.03,1.37-2.32,1.37-3.88v-3.09h5.15v8.51h8.1v5.15h-8.1v20.94c0,1.24.18,2.32.55,3.26.37.94,1,1.68,1.89,2.23.89.55,2.09.82,3.61.82.37,0,.8-.02,1.3-.07.5-.05.94-.09,1.3-.14v4.6c-.55.14-1.17.24-1.85.31-.69.07-1.24.1-1.65.1Z"/>
    <path class="cls-1" d="M561.86,8.38V.82h5.15v7.55h-5.15ZM561.86,51.98V15.18h5.15v36.8h-5.15Z"/>
    <path class="cls-1" d="M577.59,51.98V15.18h5.15v7.14l-1.17-.27c.91-2.38,2.41-4.26,4.5-5.63,2.08-1.37,4.5-2.06,7.24-2.06s4.95.59,7.04,1.78c2.08,1.19,3.73,2.83,4.94,4.91,1.21,2.08,1.82,4.43,1.82,7.04v23.89h-5.15v-21.9c0-2.24-.4-4.14-1.2-5.7-.8-1.56-1.92-2.76-3.36-3.61-1.44-.85-3.1-1.27-4.98-1.27s-3.55.42-5.01,1.27c-1.47.85-2.61,2.06-3.43,3.64-.82,1.58-1.24,3.47-1.24,5.66v21.9h-5.15Z"/>
    <path class="cls-1" d="M634.37,67.08c-2.52,0-4.84-.39-6.97-1.17-2.13-.78-3.96-1.84-5.49-3.19-1.53-1.35-2.71-2.92-3.54-4.7l4.74-2.54c.73,1.74,2.04,3.25,3.91,4.53,1.88,1.28,4.28,1.92,7.21,1.92,2.24,0,4.3-.44,6.18-1.3,1.88-.87,3.39-2.15,4.53-3.85,1.14-1.69,1.72-3.78,1.72-6.25v-8.17l.82.76c-1.28,2.66-3.18,4.7-5.7,6.15-2.52,1.44-5.26,2.16-8.24,2.16-3.43,0-6.52-.82-9.27-2.47-2.75-1.65-4.91-3.88-6.49-6.69-1.58-2.81-2.37-5.94-2.37-9.37s.79-6.61,2.37-9.41c1.58-2.79,3.73-5.01,6.45-6.66,2.72-1.65,5.82-2.47,9.3-2.47,2.97,0,5.69.69,8.14,2.06,2.45,1.37,4.38,3.23,5.8,5.56l-.82,1.44v-8.24h5.15v35.36c0,3.16-.74,5.98-2.23,8.48-1.49,2.49-3.55,4.46-6.18,5.91-2.63,1.44-5.64,2.16-9.03,2.16ZM633.82,46.28c2.38,0,4.53-.61,6.45-1.82,1.92-1.21,3.47-2.84,4.64-4.88,1.17-2.04,1.75-4.27,1.75-6.69s-.58-4.66-1.75-6.69c-1.17-2.04-2.71-3.66-4.64-4.88-1.92-1.21-4.08-1.82-6.45-1.82s-4.62.61-6.59,1.82c-1.97,1.21-3.51,2.83-4.64,4.84-1.12,2.01-1.68,4.26-1.68,6.73s.56,4.66,1.68,6.69c1.12,2.04,2.65,3.66,4.6,4.88,1.95,1.21,4.15,1.82,6.63,1.82Z"/>
    <path class="cls-1" d="M299.29,120.05c-3.62,0-6.93-.65-9.96-1.96-3.02-1.3-5.64-3.14-7.86-5.49-2.22-2.36-3.95-5.14-5.18-8.34-1.24-3.2-1.85-6.73-1.85-10.57s.62-7.37,1.85-10.57c1.24-3.2,2.96-6,5.18-8.38,2.22-2.38,4.84-4.22,7.86-5.53,3.02-1.3,6.34-1.96,9.96-1.96s6.6.62,9.37,1.85c2.77,1.24,5.1,2.83,7,4.77,1.9,1.95,3.26,3.99,4.09,6.15l-5.15,2.27c-1.28-2.97-3.24-5.37-5.87-7.18-2.63-1.81-5.78-2.71-9.44-2.71s-7.1.89-10.03,2.68c-2.93,1.78-5.22,4.27-6.87,7.45-1.65,3.18-2.47,6.9-2.47,11.16s.82,7.92,2.47,11.12c1.65,3.2,3.94,5.69,6.87,7.45,2.93,1.76,6.27,2.64,10.03,2.64s6.81-.89,9.44-2.68c2.63-1.78,4.59-4.16,5.87-7.14l5.15,2.27c-.82,2.11-2.19,4.13-4.09,6.08-1.9,1.95-4.23,3.54-7,4.77-2.77,1.24-5.89,1.85-9.37,1.85Z"/>
    <path class="cls-1" d="M345.37,120.05c-3.48,0-6.64-.83-9.48-2.51-2.84-1.67-5.09-3.96-6.76-6.87-1.67-2.91-2.51-6.21-2.51-9.92s.82-6.93,2.47-9.82c1.65-2.88,3.88-5.16,6.69-6.83,2.82-1.67,6.01-2.51,9.58-2.51s6.76.82,9.58,2.47c2.82,1.65,5.04,3.91,6.66,6.8,1.62,2.88,2.44,6.18,2.44,9.89s-.85,7.08-2.54,9.99c-1.69,2.91-3.95,5.18-6.76,6.83-2.82,1.65-5.94,2.47-9.37,2.47ZM345.37,114.9c2.47,0,4.7-.62,6.69-1.85,1.99-1.24,3.57-2.93,4.74-5.08,1.17-2.15,1.75-4.55,1.75-7.21s-.58-5.03-1.75-7.14c-1.17-2.11-2.75-3.78-4.74-5.01-1.99-1.24-4.22-1.85-6.69-1.85s-4.7.62-6.7,1.85c-1.99,1.24-3.58,2.91-4.77,5.01-1.19,2.11-1.78,4.49-1.78,7.14s.59,5.06,1.78,7.21c1.19,2.15,2.78,3.84,4.77,5.08,1.99,1.24,4.22,1.85,6.7,1.85Z"/>
    <path class="cls-1" d="M373.1,119.23v-36.8h5.15v7l-.82-1.03c1.01-2.15,2.51-3.82,4.5-5.01,1.99-1.19,4.18-1.79,6.56-1.79,2.84,0,5.4.8,7.69,2.4,2.29,1.6,3.91,3.69,4.88,6.25l-1.44.07c.92-2.84,2.51-5,4.77-6.49,2.27-1.49,4.77-2.23,7.52-2.23,2.47,0,4.75.6,6.83,1.79,2.08,1.19,3.75,2.83,5.01,4.91,1.26,2.08,1.89,4.43,1.89,7.04v23.89h-5.15v-21.9c0-2.24-.4-4.14-1.2-5.7-.8-1.56-1.89-2.76-3.26-3.6-1.37-.85-2.95-1.27-4.74-1.27s-3.32.42-4.74,1.27c-1.42.85-2.54,2.06-3.36,3.64-.82,1.58-1.24,3.47-1.24,5.66v21.9h-5.15v-21.9c0-2.24-.4-4.14-1.2-5.7-.8-1.56-1.89-2.76-3.26-3.6-1.37-.85-2.95-1.27-4.74-1.27s-3.38.42-4.77,1.27c-1.4.85-2.51,2.06-3.33,3.64-.82,1.58-1.24,3.47-1.24,5.66v21.9h-5.15Z"/>
    <path class="cls-1" d="M435.45,119.23v-36.8h5.15v7l-.82-1.03c1.01-2.15,2.51-3.82,4.5-5.01,1.99-1.19,4.18-1.79,6.56-1.79,2.84,0,5.4.8,7.69,2.4,2.29,1.6,3.91,3.69,4.88,6.25l-1.44.07c.92-2.84,2.51-5,4.77-6.49,2.27-1.49,4.77-2.23,7.52-2.23,2.47,0,4.75.6,6.83,1.79,2.08,1.19,3.75,2.83,5.01,4.91,1.26,2.08,1.89,4.43,1.89,7.04v23.89h-5.15v-21.9c0-2.24-.4-4.14-1.2-5.7-.8-1.56-1.89-2.76-3.26-3.6-1.37-.85-2.95-1.27-4.74-1.27s-3.32.42-4.74,1.27c-1.42.85-2.54,2.06-3.36,3.64-.82,1.58-1.24,3.47-1.24,5.66v21.9h-5.15v-21.9c0-2.24-.4-4.14-1.2-5.7-.8-1.56-1.89-2.76-3.26-3.6-1.37-.85-2.95-1.27-4.74-1.27s-3.38.42-4.77,1.27c-1.4.85-2.51,2.06-3.33,3.64-.82,1.58-1.24,3.47-1.24,5.66v21.9h-5.15Z"/>
    <path class="cls-1" d="M510.85,120.05c-2.56,0-4.9-.61-7-1.82-2.11-1.21-3.77-2.91-4.98-5.08-1.21-2.17-1.82-4.68-1.82-7.52v-23.21h5.15v22.59c0,1.97.4,3.7,1.2,5.18.8,1.49,1.92,2.64,3.36,3.47,1.44.82,3.1,1.24,4.98,1.24s3.55-.42,5.01-1.27c1.46-.85,2.61-2.06,3.43-3.64s1.24-3.47,1.24-5.66v-21.9h5.15v36.8h-5.15v-7.14l1.17.27c-.87,2.38-2.36,4.26-4.46,5.63-2.11,1.37-4.53,2.06-7.28,2.06Z"/>
    <path class="cls-1" d="M537.14,119.23v-36.8h5.15v7.14l-1.17-.27c.91-2.38,2.41-4.26,4.5-5.63,2.08-1.37,4.5-2.06,7.24-2.06s4.95.6,7.04,1.79c2.08,1.19,3.73,2.83,4.94,4.91,1.21,2.08,1.82,4.43,1.82,7.04v23.89h-5.15v-21.9c0-2.24-.4-4.14-1.2-5.7-.8-1.56-1.92-2.76-3.36-3.6-1.44-.85-3.1-1.27-4.98-1.27s-3.55.42-5.01,1.27c-1.47.85-2.61,2.06-3.43,3.64s-1.24,3.47-1.24,5.66v21.9h-5.15Z"/>
    <path class="cls-1" d="M576.49,75.63v-7.55h5.15v7.55h-5.15ZM576.49,119.23v-36.8h5.15v36.8h-5.15Z"/>
    <path class="cls-1" d="M606.29,119.64c-3.3,0-5.84-.96-7.62-2.88-1.78-1.92-2.68-4.67-2.68-8.24v-20.94h-6.8v-5.15h1.72c1.56,0,2.79-.51,3.71-1.54.92-1.03,1.37-2.32,1.37-3.88v-3.09h5.15v8.51h8.1v5.15h-8.1v20.94c0,1.24.18,2.32.55,3.26.37.94,1,1.68,1.89,2.23.89.55,2.09.82,3.61.82.37,0,.8-.02,1.3-.07.5-.05.94-.09,1.3-.14v4.6c-.55.14-1.17.24-1.85.31-.69.07-1.24.1-1.65.1Z"/>
    <path class="cls-1" d="M618.85,75.63v-7.55h5.15v7.55h-5.15ZM618.85,119.23v-36.8h5.15v36.8h-5.15Z"/>
    <path class="cls-1" d="M651.33,120.05c-3.43,0-6.53-.83-9.3-2.51-2.77-1.67-4.96-3.97-6.56-6.9-1.6-2.93-2.4-6.25-2.4-9.96s.78-6.99,2.33-9.85c1.56-2.86,3.67-5.12,6.35-6.76,2.68-1.65,5.69-2.47,9.03-2.47,2.65,0,5.02.49,7.11,1.48,2.08.99,3.86,2.31,5.32,3.98,1.46,1.67,2.59,3.55,3.36,5.63.78,2.08,1.17,4.22,1.17,6.42,0,.46-.02.97-.07,1.54-.05.57-.12,1.16-.21,1.75h-31.1v-4.81h28.15l-2.47,2.06c.41-2.52.12-4.77-.86-6.76-.99-1.99-2.39-3.57-4.22-4.74-1.83-1.17-3.89-1.75-6.18-1.75s-4.41.59-6.35,1.78c-1.95,1.19-3.47,2.85-4.57,4.98-1.1,2.13-1.53,4.66-1.3,7.59-.23,2.93.24,5.48,1.41,7.66,1.17,2.18,2.77,3.86,4.81,5.05,2.04,1.19,4.22,1.79,6.56,1.79,2.7,0,4.97-.64,6.8-1.92,1.83-1.28,3.32-2.88,4.46-4.81l4.39,2.33c-.73,1.65-1.85,3.17-3.36,4.57-1.51,1.4-3.31,2.52-5.39,3.36-2.08.85-4.38,1.27-6.9,1.27Z"/>
    <path class="cls-1" d="M689.58,120.05c-3.53,0-6.62-.89-9.27-2.68-2.65-1.79-4.58-4.21-5.77-7.28l4.33-2.06c1.05,2.24,2.53,4.03,4.43,5.36s3.99,1.99,6.28,1.99,4.05-.54,5.56-1.61c1.51-1.07,2.27-2.48,2.27-4.22,0-1.28-.37-2.3-1.1-3.06-.73-.76-1.58-1.34-2.54-1.75-.96-.41-1.81-.71-2.54-.89l-5.29-1.51c-3.39-.96-5.84-2.31-7.35-4.05-1.51-1.74-2.27-3.75-2.27-6.04,0-2.15.55-4.03,1.65-5.63,1.1-1.6,2.59-2.84,4.46-3.71,1.88-.87,3.96-1.31,6.25-1.31,3.11,0,5.94.81,8.48,2.44,2.54,1.63,4.34,3.88,5.39,6.76l-4.39,2.06c-.92-2.06-2.23-3.67-3.95-4.84-1.72-1.17-3.63-1.75-5.73-1.75s-3.71.53-4.94,1.58c-1.24,1.05-1.85,2.38-1.85,3.98,0,1.24.32,2.22.96,2.95.64.73,1.38,1.28,2.23,1.65.85.37,1.59.64,2.23.82l6.11,1.79c2.97.87,5.3,2.22,6.97,4.05,1.67,1.83,2.51,3.98,2.51,6.45,0,2.01-.56,3.82-1.68,5.42-1.12,1.6-2.67,2.85-4.64,3.74-1.97.89-4.23,1.34-6.8,1.34Z"/>
  </g>
  <g>
    <path class="cls-1" d="M220.23,86.38v3.05c-.62,6.52-6.13,11.63-12.8,11.63h-53.11c-7.1,0-12.86-5.76-12.86-12.86v-53.28c0-7.1,5.76-12.86,12.86-12.86h53.11c6.68,0,12.18,5.11,12.8,11.63v.37h17.25c0-.12,0-.25,0-.37-.65-16.01-13.88-28.84-30.05-28.84h-40.53c-1.41,0-2.78.52-3.85,1.44l-36.79,31.9c-1.29,1.12-2.03,2.74-2.03,4.44v45.58c0,16.61,13.47,30.08,30.08,30.08h53.11c16.14,0,29.35-12.78,30.05-28.76,0-1.04,0-2.09,0-3.13h-17.25Z"/>
    <path class="cls-1" d="M96,86.28v3.15c-.62,6.52-6.13,11.63-12.8,11.63H30.08c-7.1,0-12.86-5.76-12.86-12.86v-53.28c0-7.1,5.76-12.86,12.86-12.86h53.11c6.68,0,12.18,5.11,12.8,11.63v.37h17.25c0-.12,0-.25,0-.37-.65-16.01-13.88-28.84-30.05-28.84h-40.53c-1.41,0-2.78.52-3.85,1.44L2.03,38.17c-1.29,1.12-2.03,2.74-2.03,4.44v45.58c0,16.61,13.47,30.08,30.08,30.08h53.11c16.14,0,29.35-12.78,30.05-28.76,0-1.08,0-2.15,0-3.23h-17.25Z"/>
  </g>
</svg>